<?xml version="1.0" encoding="utf-8"?>
<svg xmlns="http://www.w3.org/2000/svg" viewBox="-497.8588 -723.2029 1793.987 1798.4851" width="1793.99px" height="1798.49px">
  <g id="SVGRepo_bgCarrier" stroke-width="0" transform="matrix(0.9999999999999999, 0, 0, 0.9999999999999999, -497.85880258469, -723.2028916359377)"/>
  <g id="SVGRepo_tracerCarrier" stroke-linecap="round" stroke-linejoin="round" transform="matrix(0.9999999999999999, 0, 0, 0.9999999999999999, -497.85880258469, -723.2028916359377)"/>
  <g id="SVGRepo_iconCarrier" transform="matrix(0.9999999999999999, 0, 0, 0.9999999999999999, -497.85880258469, -723.2028916359377)">
    <g>
      <path d="M1762.581,1.514H37.419c-17.352,0-31.407,14.06-31.407,31.407v1557.842 c0,17.342,14.056,31.406,31.407,31.406h217.792v144.909c0,17.342,14.065,31.407,31.407,31.407h245.651 c17.352,0,31.407-14.065,31.407-31.407v-144.909h672.647v144.909c0,17.342,14.057,31.407,31.408,31.407h245.649 c17.343,0,31.408-14.065,31.408-31.407v-144.909h217.792c17.342,0,31.407-14.064,31.407-31.406V32.92 C1793.988,15.574,1779.923,1.514,1762.581,1.514z M500.862,1735.671H318.026v-109.927h182.835V1735.671z M1481.974,1735.671 h-182.835v-109.927h182.835V1735.671z M215.154,199.597h1369.691v1230.754H215.154V199.597z M152.339,1027.651H68.826V596.919 h83.513V1027.651z M1731.173,1559.354H68.826v-468.894h83.513v371.298c0,17.342,14.057,31.408,31.408,31.408h1432.506 c17.343,0,31.406-14.066,31.406-31.408V168.19c0-17.347-14.063-31.407-31.406-31.407H183.747c-17.351,0-31.408,14.06-31.408,31.407 v365.915H68.826V64.328h1662.347V1559.354z" style="fill: rgb(74, 98, 138);"/>
      <path d="M1202.266,514.826c-0.763-0.964-1.569-1.906-2.458-2.796c-0.89-0.89-1.832-1.696-2.796-2.456 C1120.456,434.335,1015.561,387.842,900,387.842c-115.556,0-220.443,46.484-296.999,121.712c-0.973,0.767-1.924,1.578-2.818,2.473 c-0.898,0.898-1.708,1.847-2.475,2.82C522.48,591.403,476,696.286,476,811.839c0,115.539,46.471,220.417,121.686,296.968 c0.771,0.982,1.586,1.941,2.493,2.845c0.907,0.902,1.862,1.718,2.844,2.488c76.551,75.219,181.429,121.695,296.977,121.695 c115.557,0,220.447-46.489,297.003-121.721c0.964-0.763,1.911-1.57,2.805-2.463c0.893-0.896,1.704-1.841,2.467-2.81 C1277.511,1032.287,1324,927.396,1324,811.839C1324,696.274,1277.502,591.381,1202.266,514.826z M1196.258,843.247h63.473 c-6.582,76.025-36.775,145.377-83.251,200.659l-44.789-44.788c-12.265-12.265-32.152-12.265-44.416,0 c-12.265,12.265-12.265,32.152,0,44.415l44.784,44.79c-55.278,46.471-124.63,76.66-200.651,83.251v-63.481 c0-17.342-14.065-31.402-31.407-31.402c-17.352,0-31.408,14.061-31.408,31.402v63.481c-76.029-6.591-145.381-36.78-200.66-83.256 l44.784-44.785c12.264-12.263,12.264-32.146,0-44.415c-12.26-12.256-32.148-12.265-44.417,0l-44.784,44.784 c-46.476-55.278-76.666-124.63-83.255-200.655h63.48c17.342,0,31.408-14.062,31.408-31.408s-14.065-31.407-31.408-31.407h-63.48 c6.589-76.025,36.779-145.375,83.255-200.655l44.784,44.789c6.134,6.132,14.17,9.199,22.206,9.199 c8.036,0,16.081-3.067,22.21-9.199c12.264-12.264,12.264-32.15,0-44.417l-44.784-44.789c55.278-46.476,124.63-76.667,200.66-83.253 v63.476c0,17.347,14.056,31.408,31.408,31.408c17.342,0,31.407-14.061,31.407-31.408v-63.476 c76.025,6.585,145.373,36.777,200.656,83.253l-44.789,44.789c-12.265,12.266-12.265,32.152,0,44.417 c6.129,6.132,14.17,9.199,22.211,9.199c8.035,0,16.071-3.067,22.205-9.199l44.789-44.789 c46.476,55.28,76.669,124.628,83.251,200.655h-63.473c-17.351,0-31.407,14.061-31.407,31.407S1178.907,843.247,1196.258,843.247z" style="fill: rgb(74, 98, 138);"/>
    </g>
  </g>
  <path class="st0" d="M 470.489 -43.855 C 433.384 -60.117 423.484 -89.194 423.114 -90.337 C 423.03 -90.57 422.865 -90.748 422.771 -90.983 C 422.508 -91.683 422.137 -92.274 421.765 -92.907 C 421.27 -93.786 420.775 -94.611 420.131 -95.34 C 419.675 -95.85 419.167 -96.248 418.645 -96.688 C 417.847 -97.348 417.037 -97.926 416.116 -98.393 C 415.523 -98.694 414.933 -98.914 414.3 -99.134 C 413.283 -99.464 412.266 -99.671 411.18 -99.754 C 410.753 -99.794 410.41 -100 409.983 -100 C 409.653 -100 409.378 -99.836 409.063 -99.807 C 408.677 -99.794 408.307 -99.903 407.907 -99.849 C 407.247 -99.739 406.683 -99.396 406.052 -99.202 C 405.35 -98.996 404.663 -98.817 404.017 -98.501 C 403.096 -98.061 402.313 -97.457 401.529 -96.823 C 400.993 -96.411 400.443 -96.053 399.976 -95.559 C 399.233 -94.763 398.697 -93.813 398.147 -92.85 C 397.857 -92.328 397.487 -91.903 397.253 -91.353 C 396.621 -89.757 396.236 -88.053 396.236 -86.251 L 396.236 -3.763 L 396.236 106.221 L 354.992 106.221 C 323.632 106.221 300 133.331 300 169.269 C 300 202.731 327.219 229.953 360.684 229.953 L 368.711 229.953 C 402.121 229.953 423.732 208.368 423.732 174.96 L 423.732 119.969 L 423.732 11.303 C 461.03 17.833 496.955 47.654 497.353 47.998 C 499.882 50.115 503.031 51.228 506.221 51.228 C 508.063 51.228 509.918 50.857 511.678 50.087 C 516.462 48.011 519.665 43.42 519.955 38.208 C 520.064 35.804 522.484 -21.059 470.489 -43.855 Z" style="fill: rgb(74, 98, 138);" transform="matrix(0.9999999999999999, 0, 0, 0.9999999999999999, -2.2737367544323206e-13, -2.2737367544323206e-13)"/>
</svg>